<?xml version="1.0" encoding="UTF-8"?><svg id="taske" xmlns="http://www.w3.org/2000/svg" viewBox="0 0 82.05 121.6"><defs><style>.cls-1{fill:#fff;}.cls-1,.cls-2,.cls-3{stroke:#1d1d1b;stroke-miterlimit:10;}.cls-1,.cls-3{stroke-width:2px;}.cls-2{fill:#1d1d1b;}.cls-3{fill:none;}</style></defs><ellipse class="cls-1" cx="39.52" cy="13.86" rx="6.91" ry="9.59"/><rect class="cls-1" x="8.2" y="1.81" width="15.29" height="25.24" rx="4.68" ry="4.68" transform="translate(-2.92 4.08) rotate(-13.44)"/><rect class="cls-1" x="58.29" y="1.52" width="15.29" height="25.24" rx="4.68" ry="4.68" transform="translate(6.95 -18.54) rotate(16.88)"/><path class="cls-1" d="m81.05,43.3c0-.27-.01-.54-.02-.81v-1.41c0-1.82-.29-3.56-.82-5.2-3.38-14.78-16.6-25.82-32.4-25.82h-13.3c-15.11,0-27.85,10.08-31.9,23.88-1.02,2.17-1.6,4.59-1.6,7.15v53.71c0,9.35,7.58,16.93,16.93,16.93h46.18c9.35,0,16.93-7.58,16.93-16.93v-50.67c0-.27.02-.54.02-.81h0Z"/><path class="cls-1" d="m81.05,52.19c0-.27-.01-.54-.02-.81v-1.41c0-1.82-.29-3.56-.82-5.2-3.38-14.78-16.6-25.82-32.4-25.82h-13.3c-15.11,0-27.85,10.08-31.9,23.88-1.02,2.17-1.6,4.59-1.6,7.15v53.71c0,9.35,7.58,16.93,16.93,16.93h46.18c9.35,0,16.93-7.58,16.93-16.93v-50.67c0-.27.02-.54.02-.81h0Z"/><rect class="cls-1" x="14.84" y="77.72" width="53.08" height="28.82" rx="7.52" ry="7.52"/><line class="cls-3" x1="14.58" y1="87.01" x2="67.66" y2="87.01"/><rect class="cls-2" x="33.91" y="18.61" width="4.17" height="13.98" rx="2.08" ry="2.08" transform="translate(11.27 -11) rotate(20.54)"/><rect class="cls-2" x="41.31" y="18.53" width="4.17" height="14.14" rx="2.08" ry="2.08" transform="translate(-6.61 19.43) rotate(-23.51)"/><rect class="cls-2" x="57.38" y="86.68" width="4.17" height="8.78" rx="2.08" ry="2.08"/></svg>