<?xml version="1.0" encoding="UTF-8"?><svg id="Layer_5" xmlns="http://www.w3.org/2000/svg" viewBox="0 0 63.27 80.79"><defs><style>.cls-1{fill:none;stroke:#1d1d1b;stroke-miterlimit:10;}</style></defs><path class="cls-1" d="m62.77,27.71c0-6.6-5.4-12-12-12h-7.94c-6.6,0-12,5.4-12,12v5.41c0,.16.02.32.02.48h-.02v46.7h31.84v-45.72c.06-.48.1-.96.1-1.45v-5.41Z"/><rect class="cls-1" x="41.55" y="12.23" width="9.97" height="3.32"/><path class="cls-1" d="m42.51.5h0s-.02,0-.03,0h-3.79c-.7,0-1.26.57-1.26,1.26s.57,1.26,1.26,1.26h3.79s.02,0,.03,0v9.18h8.11V.5h-8.11Z"/><rect class="cls-1" x="30.95" y="40.28" width="14.54" height="23.71"/><path class="cls-1" d="m31.01,73.62c-.06-6.03-.2-1.58,0-2.71-.06-3.28-.45-4.94-.19-7.05-.63-.32,2.15-.22,1.39-.22H6.59c-2.63,0-4.78,2.15-4.78,4.78v2.75c0,2.63,2.15,4.78,4.78,4.78l24.07-.33c0-.7.29-1.38.35-2.01Z"/><rect class="cls-1" x=".5" y="75.33" width="29.73" height="2.83"/><polygon class="cls-1" points="30.17 80.25 4.4 80.25 1.67 78.24 30.17 78.31 30.17 80.25"/><path class="cls-1" d="m7.09,66.3s.52,2.18,2.35,2.26,6.79.35,6.79.35"/><ellipse class="cls-1" cx="11.63" cy="54.65" rx="1.61" ry="1.5"/><ellipse class="cls-1" cx="20.64" cy="45.21" rx="3" ry="2.68"/><ellipse class="cls-1" cx="8.68" cy="39.1" rx="1.77" ry="1.61"/></svg>