<?xml version="1.0" encoding="UTF-8"?><svg id="Layer_4" xmlns="http://www.w3.org/2000/svg" viewBox="0 0 83.91 93.67"><defs><style>.cls-1{fill:#1d1d1b;}.cls-1,.cls-2{stroke:#1d1d1b;stroke-miterlimit:10;}.cls-2{fill:none;}.cls-3{fill:#fff;font-family:MyriadPro-Regular, 'Myriad Pro';font-size:28px;}</style></defs><rect class="cls-1" x="9.21" y="59.87" width="13.27" height="32.41" transform="translate(-43.13 25.47) rotate(-37.6)"/><polyline class="cls-2" points="34.86 77.65 29.46 81.8 13.82 61.44 19.22 57.29"/><path class="cls-2" d="m75,39.24c-2.46-1.99-6.11-1.61-8.11.85l-10.19,12.59c-.35-.24-.74-.4-1.19-.46l-21.91-2.58c-.41-.05-.8,0-1.17.13v-.02s-.14.08-.14.08c-.25.1-.48.23-.69.39l-12.38,7.05-5.41,4.15s-.7.26,1.16,1.91l6.01,7.82,8.47,10.62,5.41-4.15s18.21-2.94,21.01-5.73c.03-.03.03-.06.06-.09.23-.2.45-.41.65-.65l19.28-23.82c1.99-2.46,1.61-6.11-.85-8.11Z"/><path class="cls-2" d="m51.44,52.08s5.83,0,6.54,3.39c.45,2.13-.36,5.18-3.63,5.18s-14.41-.87-14.41-.87"/><ellipse class="cls-1" cx="45.41" cy="18.48" rx="18.08" ry="16.54"/><rect class="cls-2" x="8.89" y="18.43" width="15.15" height=".71" rx=".36" ry=".36"/><rect class="cls-2" x="68.25" y="17.35" width="15.15" height=".71" rx=".36" ry=".36"/><rect class="cls-2" x="65.59" y="1.96" width="10.01" height=".72" rx=".36" ry=".36" transform="translate(2.86 22.35) rotate(-18.35)"/><rect class="cls-2" x="18.11" y="33.14" width="10.01" height=".72" rx=".36" ry=".36" transform="translate(-9.37 8.98) rotate(-18.35)"/><rect class="cls-2" x="67.43" y="28.05" width="10.01" height=".72" rx=".36" ry=".36" transform="translate(10.02 -18.05) rotate(15.24)"/><rect class="cls-2" x="13.38" y="5.76" width="10.01" height=".72" rx=".36" ry=".36" transform="translate(2.26 -4.62) rotate(15.24)"/><text class="cls-3" transform="translate(38.34 27.53)"><tspan x="0" y="0">$</tspan></text></svg>