<?xml version="1.0" encoding="UTF-8"?><svg id="Layer_2" xmlns="http://www.w3.org/2000/svg" viewBox="0 0 61.13 51.16"><defs><style>.cls-1{fill:#1d1d1b;stroke-width:0px;}</style></defs><path class="cls-1" d="m60.78,19.69l-4.37-7.52c-.38-1.05-1.11-2.3-2.12-3.67-.21-.36-.6-.84-1.05-1.31C46.5-.54,38.03-.01,37.67.02l-.68.05v.04s0-.01,0-.01l-.12,1.05c0,.08-1.04,8.28-6.42,7.82-5.46-.46-6.2-8.02-6.2-8.1l-.05-.55h-.04s.02-.14.02-.14h-.57c-.51-.02-11.51-.02-16.4,7.53-.12.16-.24.31-.32.45L.35,19.48c-.35.6-.44,1.29-.26,1.96.18.67.61,1.22,1.2,1.57l8.99,5.19c1.23.71,2.82.29,3.53-.95l.11-.18v17.75c0,.42.06.83.18,1.22.17.55.51,1.1,1,1.66.71.81,1.62,1.46,2.8,1.98,3.63.89,7.37,1.38,11.1,1.47.38,0,.76.01,1.14.01,4.26,0,8.53-.53,12.71-1.59.61-.2,1.76-.72,2.67-1.89.8-1.02,1.07-2.09,1.16-2.86v-18.47l.64,1.11c.71,1.23,2.3,1.65,3.53.95l8.99-5.19c.6-.35,1.03-.9,1.2-1.57.18-.67.09-1.36-.26-1.96Z"/><path class="cls-1" d="m30.36,9.96c5.09.43,6.83-5.33,7.33-7.71l.29.3,3.03,7.59.17.1-.61.35c-.89.51-1.37,1.48-1.28,2.46h-17.48c.13-.78-.1-1.58-.63-2.17.94-.74,1.52-1.24,1.52-1.24l.14-.12.89-6.23c.73,2.55,2.49,6.3,6.64,6.65Z"/><path class="cls-1" d="m22.97,1.57l-1.06,7.45c-.28.23-.93.77-1.82,1.47l-.56.43.6.38c.68.44.92,1.31.56,2.04l-.37.73h20.32l-.25-.67c-.27-.73.02-1.53.69-1.92l2.08-1.2-1.33-.81-2-5.02,5.95,6.15-14.75,11.22-13.54-4.93-.71-14.09,6.2-1.22Z"/><path class="cls-1" d="m60.07,21.39c-.11.41-.37.75-.74.96l-8.99,5.19c-.75.44-1.73.18-2.16-.58l-2.5-4.34v22.14c-.07.59-.29,1.46-.95,2.31-.75.96-1.71,1.39-2.17,1.55-4.43,1.12-8.99,1.64-13.55,1.54-3.66-.08-7.32-.56-10.79-1.41-.96-.43-1.75-1-2.37-1.7-.27-.31-.63-.79-.79-1.3-.09-.3-.14-.61-.14-.93v-21.49l-1.97,3.41c-.44.76-1.41,1.02-2.16.58L1.79,22.14c-.37-.21-.63-.55-.74-.96-.11-.41-.05-.84.16-1.2l6.54-11.33c.06-.1.14-.22.26-.37,1.91-2.95,4.89-4.67,7.73-5.68l.76,14.99,14.67,5.35,16.08-12.23L38.84,2l-.39-.99c2.13.05,8.73.74,14.06,6.85.41.42.76.85.95,1.18.99,1.34,1.66,2.5,2.05,3.54l4.41,7.6c.21.37.27.79.16,1.2Z"/></svg>