<?xml version="1.0" encoding="UTF-8"?><svg id="Layer_6" xmlns="http://www.w3.org/2000/svg" viewBox="0 0 90.45 97"><defs><style>.cls-1,.cls-2{stroke:#1d1d1b;stroke-miterlimit:10;}.cls-1,.cls-3{fill:#fff;}.cls-2{fill:#1d1d1b;}.cls-3{stroke-width:0px;}</style></defs><path class="cls-2" d="m89.85,36.48c.12-1.98.12-3.93,0-5.83V8.28c0-3.79-2.74-7.78-6.53-7.78l-18,.19C50.23-.46,29.43,8.74,16.26,24.77c-7.52,9.14-11.76,16.91-13.66,26.27-.3,1.48-.68,2.94-1.12,4.39-.5,1.64-.98,3.86-.98,4.74v28.5c0,3.79,3.07,6.86,6.86,6.86l6.64.35c15.81,3.17,46.23-5.67,60.6-23.14,8.92-10.85,14.01-23.19,15.11-34.55.09-.45.14-.91.14-1.39v-.3Z"/><path class="cls-1" d="m.94,57.05c.88,1.82,2.11,4.26,3.69,7.09,3.46,6.2,6.51,10.5,7.21,11.47,3.81,5.33,5.72,8,9.27,10.94,3.07,2.54,5.98,4.15,7.8,5.05,2.93,1.45,5.62,2.33,7.76,2.88,2.68-.85,5.37-1.7,8.05-2.55,0,0-35.31-34.9-39.85-47.9l-3.92,13.01Z"/><path class="cls-1" d="m89.66,39.51c-.5.26-4.38-8.86-10.19-18.33-2.95-4.81-4.21-6.41-4.69-7.02-3.22-4.07-8.45-9.21-17.04-13.38-3.25.9-6.49,1.79-9.74,2.69,0,0,33.9,36.54,37.93,49.72l3.73-13.67Z"/><path class="cls-3" d="m28.97,56.66c5.51-10.5,14.03-19.14,24.46-24.8,2.83-1.53.31-5.85-2.52-4.32-11.12,6.03-20.37,15.39-26.25,26.59-1.49,2.85,2.82,5.38,4.32,2.52h0Z"/><path class="cls-3" d="m26.12,46.81c1.63.81,3.06,1.95,4.5,3.05,1.59,1.21,3.22,2.25,5.11,2.93,1.23.44,2.79-.5,3.08-1.75.32-1.41-.43-2.6-1.75-3.08-.11-.04-.22-.09-.33-.12-.3-.1.49.22.2.09-.19-.09-.39-.18-.58-.27-.4-.2-.79-.43-1.17-.67-.75-.47-1.45-1-2.16-1.53-1.41-1.07-2.8-2.17-4.39-2.96-1.17-.58-2.76-.35-3.42.9-.6,1.13-.35,2.8.9,3.42h0Z"/><path class="cls-3" d="m33.99,38.51c.24.04.46.11.68.2l-.6-.25c.33.15.63.33.91.55l-.51-.39c1.08.86,1.97,1.99,2.91,3,1.04,1.12,2.07,2.23,3.11,3.35.89.96,2.65.97,3.54,0,.94-1.03.95-2.51,0-3.54-1.32-1.43-2.65-2.86-3.97-4.28s-2.72-3.1-4.74-3.45c-.68-.12-1.31-.11-1.93.25-.52.3-1.01.9-1.15,1.49-.28,1.22.37,2.83,1.75,3.08h0Z"/><path class="cls-3" d="m40.75,31.57c.09.05.18.11.27.16.45.25-.28-.26-.06-.06.18.16.36.31.53.48.38.36.75.73,1.12,1.1.82.81,1.65,1.62,2.47,2.43,1.63,1.6,3.25,3.2,4.88,4.79.93.92,2.62,1,3.54,0s1-2.56,0-3.54c-1.67-1.64-3.34-3.29-5.01-4.93-.82-.81-1.65-1.62-2.47-2.43s-1.69-1.74-2.74-2.32c-1.15-.63-2.78-.32-3.42.9s-.33,2.75.9,3.42h0Z"/></svg>